<?xml version="1.0" encoding="UTF-8"?><svg xmlns="http://www.w3.org/2000/svg" viewBox="0 0 296.88 284.06"><defs><style>.cls-1{fill:#fff;}.cls-2{fill:#e94e1b;}.cls-3{fill:#e30613;}.cls-4{fill:#fde2cc;}.cls-5{fill:#1d1d1b;}</style></defs><g id="Oreja_Izquierda"><path class="cls-5" d="m111.41,79.05c-11.19,27.29-41.11,49.97-65.13,40.48-24.02-9.49-34.71-39.43-23.87-66.86,10.84-27.43,36.06-40.57,63.13-33.48,24.99,6.55,35.93,35.33,25.87,59.86Z"/></g><g id="Oreja_derecha"><path class="cls-5" d="m172.81,94.07c10.13,25.16,37.09,25.17,58.92,18.84,25.54-9.67,30.69-36.84,22.75-62.81-10.31-33.75-37.65-39.14-58.57-31.14-23.8,8.47-35.71,39.14-23.09,75.12Z"/></g><g id="Cabeza"><path class="cls-5" d="m138.9,81.8c-46.08,0-86.43,38.63-86.43,86.29,0,9.43,1.48,18.49,4.19,26.99.18-.82.4-1.63.69-2.43,3.49-9.65,13.22-14.55,26.69-14.77-3.43-8.31-5.43-18.37-5.41-29.22.05-28.45,19.96-56.49,37.07-56.46,9.43.02,15.04,8.02,18.25,20.43,3.11-13.55,8.8-22.41,18.72-22.43,17.09-.03,36.54,28.05,35.03,56.46-.65,12.31-3.72,22.92-8.23,31.27,17.66-2.27,28.56,2.44,32.65,13.72.18.51.34,1.02.48,1.53.57-1.34,1.15-2.7,1.72-4.09,22.14-53-29.35-107.29-75.43-107.29Z"/></g><g id="Rostro"><path class="cls-4" d="m212.12,191.65c-4.09-11.28-14.99-15.99-32.65-13.72,4.51-8.35,7.57-18.96,8.23-31.27,1.51-28.41-17.95-56.49-35.03-56.46-9.92.02-15.61,8.88-18.72,22.43-3.21-12.41-8.82-20.41-18.25-20.43-17.1-.03-37.01,28.01-37.07,56.46-.02,10.85,1.98,20.91,5.41,29.22-13.47.22-23.19,5.12-26.69,14.77-5.83,16.09,10.66,36.82,36.83,46.3,5.17,1.87,10.34,3.16,15.34,3.91,6.81,8.95,17.25,15.38,27.84,15.38,11.49,0,22.81-7.58,29.51-17.74,2.79-.68,5.61-1.52,8.44-2.55,26.17-9.48,42.66-30.21,36.83-46.3Z"/></g><g id="Ojos"><path class="cls-1" d="m129.48,152.38c0,8.48-.64,16.06-1.97,21.03-3.73.46-7.23,1.34-10.41,2.55-4.29-4.67-8.2-13.48-8.2-23.58,0-14.99,4.61-27.14,10.29-27.14s10.29,12.15,10.29,27.14Z"/><path class="cls-1" d="m157.48,152.38c0,9.73-4.05,18.27-8.45,23.05-3.19-1.08-6.68-1.84-10.37-2.19-.76-4.97-.76-12.47-.76-20.86,0-14.99,4.61-27.14,10.29-27.14s9.29,12.15,9.29,27.14Z"/></g><g id="pupilas"><g><ellipse class="cls-5" cx="143.54" cy="161.8" rx="10.71" ry="4.93" transform="translate(-36.91 281.05) rotate(-81.88)"/><ellipse class="cls-5" cx="123.54" cy="161.8" rx="4.93" ry="10.71" transform="translate(-18.24 15.71) rotate(-6.78)"/></g></g><g id="nariz"><path class="cls-5" d="m155.9,190.16c0,7.06-9.88,13.79-22.07,13.79s-22.07-5.72-22.07-12.79,9.88-12.79,22.07-12.79,22.07,4.72,22.07,11.79Z"/></g><g id="Boca"><path class="cls-3" d="m100.69,218.23c.26.14.65.35,1.11.6,3.39,1.78,10.13,4.95,19.03,6.69,10.94,2.14,20.2,1.15,25.5.21,4.43-.78,12.64-2.3,21.64-7.71,2.76-1.66,4.92-3.28,6.43-4.5-1.92,3.74-4.12,7.7-6.64,11.79-2.29,3.72-4.6,7.14-6.86,10.29-1.15-.84-3.36-2.21-6.43-2.57-3.4-.4-5.99.65-7.5,1.29-.67.28-3.23,1.41-5.72,3.93-1.01,1.02-1.73,1.99-2.21,2.72-.06-.96-.37-3.57-2.36-5.14-1.95-1.54-4.38-1.16-7.71-.64-2.31.36-5.3.86-8.14,3.21-1.65,1.36-2.65,2.85-3.21,3.86-3.36-4.5-12.46-18.9-15.81-23.4l-1.11-.6Z"/></g><g id="Lengua"><path class="cls-2" d="m154.47,233.02c-3.4-.4-5.99.65-7.5,1.29-.67.28-3.23,1.41-5.72,3.93-1.01,1.02-1.73,1.99-2.21,2.72-.06-.96-.37-3.57-2.36-5.14-1.95-1.54-4.38-1.16-7.71-.64-2.31.36-5.3.86-8.14,3.21-1.65,1.36-2.65,2.85-3.21,3.86-1.2-1.6,8.39,9.64,18.68,9.64s18.99-6.79,23.72-16.88c-1.25-.78-3.13-1.69-5.54-1.97Z"/></g><g id="Lineas"><path class="cls-5" d="m109.8,179.22c6.55-4.86,14.95-7.41,23.14-7.1,8.13.28,16.53,2.16,23.22,6.97,0,0-.52.85-.52.85-10.68-4.55-22.89-6.23-34.29-3.82-3.79.85-7.41,2.3-11.06,3.97l-.49-.87h0Z"/><path class="cls-5" d="m55.94,190.98c-1.56,25.11,12.57,36.21,33.5,45.79,6.31,2.78,13,4.72,19.88,6.03l-.11.99c-7.09-.3-14.17-1.77-20.87-4.3-13.17-5.29-27.19-13.13-32.13-27.3-2.54-6.89-2.82-14.42-1.24-21.36,0,0,.99.15.99.15h0Z"/><path class="cls-5" d="m70.45,204.73c2.41-8.49,13.08-12.8,20.96-9.05,0,0-.31.95-.31.95-7.82-1.57-15.45,1.85-19.75,8.52,0,0-.91-.42-.91-.42h0Z"/><path class="cls-5" d="m79.88,198.44c11.9,14.27,29.23,24.43,47.85,26.15,22.74,2.29,45.01-8.17,59.78-25.29,0,0,.8.61.8.61-11.05,14.83-28.32,25.46-46.85,27.48-4.95.68-10.04.49-15.01.07-1.85-.33-5.11-.71-6.91-1.21-4.56-1.03-8.98-2.59-13.24-4.53-10.79-5.14-20.34-12.97-27.22-22.67,0,0,.81-.59.81-.59h0Z"/><path class="cls-5" d="m177.34,196.09c8.13-1.83,17.26,2.86,20.43,10.55,0,0-.88.47-.88.47-4.24-6.58-11.6-10.4-19.42-10.02,0,0-.13-.99-.13-.99h0Z"/><path class="cls-5" d="m101.57,217.35c3.33,6,6.82,11.85,10.84,17.41,2.62,3.63,5.21,7.44,8.57,10.37,8.62,7.25,21.37,8.34,30.12.67,2.52-2.1,5.03-4.53,7.13-7.08,3.37-4.55,5.98-9.63,8.91-14.52,2.29-3.96,4.55-7.93,6.88-11.88,0,0,.88.47.88.47-4.26,8.16-8.42,16.27-13.13,24.22-2.39,4.08-5.76,7.37-9.34,10.44-9.67,8.48-23.29,7.37-32.83-.73-3.56-3.13-6.07-7.09-8.69-10.93-3.9-5.69-7.25-11.78-10.23-17.99,0,0,.89-.46.89-.46h0Z"/><path class="cls-5" d="m117.06,240.58c5.32-6.68,17.43-11.86,23.84-3.85,0,0-.71.71-.71.71-7.11-5.44-16.29-.99-22.45,3.87,0,0-.68-.73-.68-.73h0Z"/><path class="cls-5" d="m137.98,239.18c3.9-8.41,15.71-11.48,22.97-5.52,0,0-.52.85-.52.85-7.67-3.44-16.37-1.42-21.6,5.19,0,0-.85-.53-.85-.53h0Z"/><path class="cls-5" d="m104.76,235.98c3.91,5.81,8.69,10.82,14.18,15.05,2.73,2.16,5.43,4.23,8.48,5.39,12.59,5,27.34-3.76,35.7-13.05,2.37-2.55,4.45-5.3,6.35-8.24l.87.48c-1.5,3.22-3.49,6.24-5.64,9.07-6.6,8.55-16.49,15.16-27.42,16.34-7.75.74-14.68-2.74-20.1-7.89-5.43-4.59-10.11-10.27-13.28-16.65,0,0,.86-.51.86-.51h0Z"/><path class="cls-5" d="m214,190.88c7.89,20.71-11.67,36.02-28.09,44.28-5.62,2.85-11.49,5.19-17.54,6.83l-.35-.94c5.6-2.7,11.09-5.52,16.39-8.63,14.99-8.86,33.21-21.26,28.63-41.24,0,0,.96-.29.96-.29h0Z"/><path class="cls-5" d="m116.68,176.24c-6.5-8.33-8.81-18.78-8.31-29.19.06-1.97.24-4.07.47-6.02.88-4.85,1.91-9.88,4.88-13.97,1.48-2.08,4.42-3.16,7.07-2.51,7.36,2.11,8.74,15.41,9.33,21.81.68,9.1.07,18.33-2.13,27.14,0,0-.98-.19-.98-.19,1.71-8.83,2.19-17.86,1.31-26.79-.64-5.61-2.44-22.46-10.83-19.8-.78.22-1.53.84-2.16,1.62-2.71,3.71-3.72,8.51-4.57,12.99-.23,1.88-.42,3.91-.49,5.8-.32,5.53.01,11.2,1.52,16.53,1.16,4.33,3.24,8.27,5.71,12.02,0,0-.83.56-.83.56h0Z"/><path class="cls-5" d="m149.3,175.67c6.7-9.57,8.16-20.48,7-31.88-.29-4.25-2.6-15.63-6.98-17.07-8.44-2.63-10.17,14.16-10.83,19.8-.88,8.94-.4,17.96,1.31,26.79,0,0-.98.19-.98.19-2.2-8.82-2.82-18.04-2.13-27.14.62-7.1,2.59-24.58,13.18-21.63,4.69,1.68,6.06,7.84,7.26,12.06.54,2.21.96,4.56,1.1,6.83.58,6.84.27,13.85-1.75,20.47-1.35,4.39-3.64,8.48-6.35,12.14,0,0-.83-.56-.83-.56h0Z"/></g></svg>